<?xml version="1.0" encoding="utf-8"?>
<!-- Generator: Adobe Illustrator 25.0.1, SVG Export Plug-In . SVG Version: 6.00 Build 0)  -->
<svg version="1.1" id="Layer_1" xmlns="http://www.w3.org/2000/svg" xmlns:xlink="http://www.w3.org/1999/xlink" x="0px" y="0px"
	 viewBox="0 0 4000 4000" enable-background="new 0 0 4000 4000" xml:space="preserve">
<g>
	<rect x="1167" y="2948.4" fill="#FCC454" width="572.2" height="506.9"/>
	<g>
		<path fill="#FFFFFF" d="M1767.8,3433.8H1192c-1.2,0-2.2-1-2.2-2.2v-465.3c0-1.2,1-2.2,2.2-2.2h575.8c1.2,0,2.2,1,2.2,2.2v465.3
			C1769.9,3432.9,1769,3433.8,1767.8,3433.8z M1194.2,3429.5h571.5v-461h-571.5V3429.5z"/>
	</g>
	<rect x="835.2" y="2948.4" fill="#FAAE00" width="334" height="506.9"/>
	<rect x="921" y="2948.4" fill="#FCC454" width="162.4" height="117.9"/>
	<rect x="896.5" y="3335.6" fill="#FCC454" width="211.5" height="24.7"/>
	<rect x="896.5" y="3366.3" fill="#FCC454" width="211.5" height="24.7"/>
	<rect x="896.5" y="3397" fill="#FCC454" width="211.5" height="24.7"/>
	<rect x="1210.8" y="3335.6" fill="#FAAE00" width="80.7" height="24.7"/>
	<rect x="1210.8" y="3366.3" fill="#FAAE00" width="80.7" height="24.7"/>
	<rect x="1210.8" y="3397" fill="#FAAE00" width="80.7" height="24.7"/>
</g>
<g>
	<rect x="1250.6" y="2637.2" fill="#47D5B8" width="351.3" height="311.2"/>
	<g>
		<path fill="#FFFFFF" d="M1589.3,2936.1H1266c-1.2,0-2.2-1-2.2-2.2v-285.7c0-1.2,1-2.2,2.2-2.2h323.3c1.2,0,2.2,1,2.2,2.2v285.7
			C1591.4,2935.1,1590.5,2936.1,1589.3,2936.1z M1268.1,2931.7h319v-281.4h-319V2931.7z"/>
	</g>
	<rect x="1046.9" y="2637.2" fill="#0CAF88" width="205" height="311.2"/>
	<rect x="1099.6" y="2637.2" fill="#FCC454" width="99.7" height="72.4"/>
	<rect x="1084.5" y="2874.9" fill="#FCC454" width="129.9" height="15.2"/>
	<rect x="1084.5" y="2893.8" fill="#FCC454" width="129.9" height="15.2"/>
	<rect x="1084.5" y="2912.6" fill="#FCC454" width="129.9" height="15.2"/>
</g>
<g>
	<rect x="1737.4" y="2837.9" fill="#47D5B8" width="697" height="617.4"/>
	<g>
		<path fill="#FFFFFF" d="M2404.6,3428.7h-636.8c-1.2,0-2.2-1-2.2-2.2v-566.8c0-1.2,1-2.2,2.2-2.2h636.8c1.2,0,2.2,1,2.2,2.2v566.8
			C2406.7,3427.7,2405.8,3428.7,2404.6,3428.7z M1769.9,3424.3h632.5v-562.5h-632.5V3424.3z"/>
	</g>
	<rect x="1333.2" y="2837.9" fill="#0CAF88" width="406.8" height="617.4"/>
	<rect x="1437.7" y="2837.9" fill="#FCC454" width="197.8" height="143.6"/>
	<rect x="1407.8" y="3309.5" fill="#FCC454" width="257.7" height="30.1"/>
	<rect x="1407.8" y="3346.9" fill="#FCC454" width="257.7" height="30.1"/>
	<rect x="1407.8" y="3384.3" fill="#FCC454" width="257.7" height="30.1"/>
	<rect x="1790.7" y="3309.5" fill="#FFFFFF" width="98.3" height="30.1"/>
	<rect x="1790.7" y="3346.9" fill="#FFFFFF" width="98.3" height="30.1"/>
	<rect x="1790.7" y="3384.3" fill="#FFFFFF" width="98.3" height="30.1"/>
	<g>
		<polygon fill="#2C2CDB" points="1573.6,2897.6 1499.5,2897.6 1536.6,2850.5 		"/>
		<rect x="1522.7" y="2897.6" fill="#2C2CDB" width="27.8" height="45.4"/>
	</g>
</g>
<g>
	<rect x="679.3" y="2113.1" opacity="0.41" fill="#FAAE00" width="2317.9" height="71.9"/>
	<rect x="679.3" y="2217.7" opacity="0.41" fill="#FAAE00" width="2317.9" height="195.4"/>
	<g>
		<path fill="#F99900" d="M2909.8,2543.1H766.6c-49.1,0-89.1-39.9-89.1-89.1V935c0-49.1,39.9-89.1,89.1-89.1h2143.2
			c49.1,0,89.1,39.9,89.1,89.1v1519.1C2998.9,2503.2,2958.9,2543.1,2909.8,2543.1z M766.6,849.4c-47.2,0-85.6,38.4-85.6,85.6v1519.1
			c0,47.2,38.4,85.6,85.6,85.6h2143.2c47.2,0,85.6-38.4,85.6-85.6V935c0-47.2-38.4-85.6-85.6-85.6H766.6z"/>
	</g>
</g>
<g>
	<polygon fill="#47D5B8" points="2148.9,1605.9 2374.3,1775.5 2287.2,1917.2 2045.1,1727.3 	"/>
	<path fill="#F7A6CC" d="M2138.3,1619.4l-52.6-65.5l-63.1-34.9l-139.9-1.7c-3.2,22.3,53.4,21.3,99.4,32
		c-11.3,10.4-16.4,15.4-10.5,33.4c-16.1,10.5-5.1,34.8,9.5,43.5c21.7,12.9,93.2,68.2,93.2,68.2L2138.3,1619.4z"/>
	<g>
		<polygon fill="#F7A6CC" points="2182,3265.5 2152.9,3338.1 2150.5,3421.4 2018.5,3419.3 2015.1,3349.4 2042.5,3266.4 		"/>
		<path fill="#FFFFFF" d="M2150.6,3421.5l-0.1,0l-132.1-2.1l0-0.1l-3.4-69.9l0,0l27.4-83l0.1,0l139.7-1l-0.1,0.1l-29.1,72.7
			L2150.6,3421.5z M2018.6,3419.2l131.8,2.1l2.4-83.2l29-72.5l-139.3,1l-27.3,82.8L2018.6,3419.2z"/>
	</g>
	<g>
		<path fill="#2C2CDB" d="M2151.7,3453.6l-283.6,2.3c4.3-22.2,12-50.1,88.7-64.4l58.4-42.2c0,0,11.1,32.5,53.5,31
			c58.6-2,84.3-42.3,84.3-42.3L2151.7,3453.6z"/>
		<path fill="#FFFFFF" d="M1868,3456l0-0.1c2.3-11.7,5.5-24,17.2-35.2c13.9-13.3,37.3-22.8,71.5-29.2l58.5-42.2l0,0.1
			c0,0.1,2.9,8.2,10.8,16c7,6.9,19.6,15,39.8,15c0.9,0,1.8,0,2.7,0c30.2-1.1,51.5-12.5,64.1-21.9c13.6-10.2,20.1-20.2,20.2-20.3
			l0.2-0.3l0,0.4l-1.2,115.6l-0.1,0L1868,3456z M2015.1,3349.6l-58.3,42.1l0,0c-34.2,6.3-57.5,15.9-71.4,29.1
			c-11.7,11.2-14.9,23.4-17.2,35l283.4-2.3l1.2-115c-1.2,1.8-7.7,10.9-20,20.1c-8,6-16.8,10.9-26.3,14.4c-11.8,4.5-24.6,7-37.9,7.5
			c-9.7,0.3-18.5-1.1-26.2-4.2c-6.2-2.5-11.7-6.1-16.4-10.7C2018.5,3358.2,2015.5,3350.7,2015.1,3349.6z"/>
	</g>
	<polygon fill="#F99900" points="2603,2090.5 2219,3293.6 2001.6,3295.1 2267,2032.3 	"/>
	<polygon fill="#F7A6CC" points="2708.9,3266.4 2708.9,3338.1 2706.5,3421.4 2574.5,3419.3 2571.1,3349.4 2569.4,3267.4 	"/>
	<path fill="#2C2CDB" d="M2707.8,3453.6l-283.6,2.3c4.3-22.2,12-50.1,88.7-64.4l58.4-42.2c0,0,11.1,32.5,53.5,31
		c58.6-2,84.3-42.3,84.3-42.3L2707.8,3453.6z"/>
	<path fill="#FAAE00" d="M2688.6,2032.3c0,0,26.5,139.9,2,243.1c-0.6,79,55.6,1018.9,55.6,1018.9l-217.4,1.6l-187.2-1248.2
		L2688.6,2032.3z"/>
	<g>
		<path fill="#FFFFFF" d="M2639.3,3232.4c-1.1,0-2.1-0.9-2.2-2.1l-46.7-1116.1c0-1.2,0.9-2.2,2.1-2.2c1.2,0,2.2,0.9,2.2,2.1
			l46.7,1116.1C2641.5,3231.4,2640.6,3232.4,2639.3,3232.4C2639.4,3232.4,2639.4,3232.4,2639.3,3232.4z"/>
	</g>
	<g>
		<path fill="#FFFFFF" d="M2111.3,3232.4c-0.2,0-0.3,0-0.5-0.1c-1.2-0.3-1.9-1.5-1.6-2.6l254.7-1020c0.3-1.2,1.5-1.9,2.6-1.6
			c1.2,0.3,1.9,1.5,1.6,2.6l-254.7,1020C2113.2,3231.8,2112.3,3232.4,2111.3,3232.4z"/>
	</g>
	<g>
		<path fill="#FFFFFF" d="M2746.2,3232.4h-224.9c-1.2,0-2.2-1-2.2-2.2c0-1.2,1-2.2,2.2-2.2h224.9c1.2,0,2.2,1,2.2,2.2
			C2748.4,3231.4,2747.4,3232.4,2746.2,3232.4z"/>
	</g>
	<g>
		<path fill="#FFFFFF" d="M2239.2,3232.4h-223.9c-1.2,0-2.2-1-2.2-2.2c0-1.2,1-2.2,2.2-2.2h223.9c1.2,0,2.2,1,2.2,2.2
			C2241.3,3231.4,2240.4,3232.4,2239.2,3232.4z"/>
	</g>
	<g>
		<path fill="#DD4B9B" d="M2708.9,3298h-142.4c-1.2,0-2.2-1-2.2-2.2s1-2.2,2.2-2.2h142.4c1.2,0,2.2,1,2.2,2.2
			S2710.1,3298,2708.9,3298z"/>
	</g>
	<g>
		<path fill="#DD4B9B" d="M2169.8,3298h-136.7c-1.2,0-2.2-1-2.2-2.2s1-2.2,2.2-2.2h136.7c1.2,0,2.2,1,2.2,2.2S2171,3298,2169.8,3298
			z"/>
	</g>
	<g>
		<path fill="#080867" d="M1830,1780.2h134.1c5.6,0,9.2-4.6,8.1-10.2l-50-243.9c-1.2-5.6-6.6-10.2-12.3-10.2h-134.1
			c-5.6,0-9.2,4.6-8.1,10.2l50,243.9C1818.9,1775.7,1824.4,1780.2,1830,1780.2z"/>
		<path fill="#2C2CDB" d="M1819.7,1780.2h134.1c5.6,0,9.2-4.6,8.1-10.2l-50-243.9c-1.2-5.6-6.6-10.2-12.3-10.2h-134.1
			c-5.6,0-9.2,4.6-8.1,10.2l50,243.9C1808.6,1775.7,1814.1,1780.2,1819.7,1780.2z"/>
		<g opacity="0.22">
			<polygon fill="#FFFFFF" points="1907.2,1780.2 1935.4,1780.2 1824.1,1516 1795.9,1516 			"/>
			<polygon fill="#FFFFFF" points="1887.1,1780.2 1901.3,1780.2 1790,1516 1775.8,1516 			"/>
		</g>
		<path fill="#FFFFFF" d="M1798.3,1556.5h88.5c6.9,0,11.3-5.6,9.9-12.5l0,0c-1.4-6.9-8.1-12.5-15-12.5h-88.5
			c-6.9,0-11.3,5.6-9.9,12.5l0,0C1784.6,1550.9,1791.4,1556.5,1798.3,1556.5z"/>
		<path fill="#080867" d="M1798.3,1556.5L1798.3,1556.5c6.9,0,11.3-5.6,9.9-12.5l0,0c-1.4-6.9-8.1-12.5-15-12.5l0,0
			c-6.9,0-11.3,5.6-9.9,12.5l0,0C1784.6,1550.9,1791.4,1556.5,1798.3,1556.5z"/>
	</g>
	<path fill="#B55100" d="M2503,1174.2c0-10.4,22.6-203,177.5-214.9c155-11.9,220.5,91.3,215.8,230.4h-133.5
		c0,0,10.7-145.8-96.6-120.8c-107.3,25-150.9,120.8-150.9,120.8L2503,1174.2z"/>
	<circle fill="#47D5B8" cx="2503" cy="1189.7" r="25.9"/>
	<path fill="#47D5B8" d="M2260,2065.6l435.9,18l-50.9-508.1c0-88.9-72.1-161-161-161h-35.7c-88.9,0-141.5,71.7-141.5,160.6
		l28.8,169.3L2260,2065.6z"/>
	<path fill="#EF92C1" d="M2495.9,1343.5c2.1,21.7,16.5,63.6,32.2,77.2c-2,24.8-47.2,62.6-86.5,83.3c-14.6-32.6-12.5-68.1-9.5-78.7
		c0,0,15.8-45.8,8.4-74.1L2495.9,1343.5z"/>
	<path fill="#F7A6CC" d="M2378.3,1284.9l14.8,86.1c0,0,7.4,28.5,42.2,24.4c30.1-3.6,59.3-11.8,60.1-36c0.7-20.4-4.1-38.1-4.1-38.1
		c15.4-1.4,34.1-19.7,17.5-40.5c-14.4-18.1-24.6,7.4-24.6,7.4l-7.9-36.7C2461,1238.6,2382.1,1225,2378.3,1284.9z"/>
	<path fill="#B55100" d="M2479,1267.1c0,0-11.8,2.7-20.8-21.5c0,0-25.2,3.7-16.3,31.5c-39.6,11.2-63.5,16.2-85.3,16
		c-27.7-47.8-22.1-89,20.4-109.3c32.9-15.7,61-3.5,61-3.5s15.1-12.9,41-1.5c22.9,10,38.2,61.5,18.7,95.5
		c-5.6,9.7-5.3,20.2-11.6,25.7L2479,1267.1z"/>
	<g>
		<path fill="#DD4B9B" d="M2492.3,1312.9c-0.3,0-0.7-0.1-1-0.2c-1.1-0.5-1.5-1.8-0.9-2.9l10.7-21.1c0.5-1.1,1.8-1.5,2.9-0.9
			c1.1,0.5,1.5,1.8,0.9,2.9l-10.7,21.1C2493.8,1312.5,2493.1,1312.9,2492.3,1312.9z"/>
	</g>
	<g>
		<path fill="#DD4B9B" d="M2443.7,1396.3c-1.1,0-2-0.8-2.1-2c-0.1-1.2,0.8-2.2,1.9-2.3c43.3-4,49.2-28.5,49.5-29.5
			c0.3-1.2,1.4-1.9,2.6-1.6c1.2,0.3,1.9,1.4,1.7,2.5c-0.2,1.2-6.6,28.6-53.3,32.9C2443.8,1396.3,2443.7,1396.3,2443.7,1396.3z"/>
	</g>
	<g>
		<path fill="#0CAF88" d="M2332,1763.3c-0.2,0-0.5,0-0.7-0.1c-1.6-0.4-2.6-2-2.2-3.6l3.6-15.3l-9.2-53.9l-19-105.5
			c0-0.1,0-0.2,0-0.3c-0.1-1.2-2.4-28.8,6-62.3c11.2-44.5,36.2-77.6,72.4-95.7c1.5-0.7,3.3-0.1,4.1,1.3c0.7,1.5,0.1,3.3-1.3,4.1
			c-35,17.5-58.3,48.4-69.2,91.6c-7.9,31.4-6.1,58.3-5.9,60.4l19,105.4l9.3,54.5c0.1,0.4,0.1,0.8,0,1.2l-3.7,15.9
			C2334.6,1762.4,2333.4,1763.3,2332,1763.3z"/>
	</g>
	<path fill="#F7A6CC" d="M2152.2,1732.7c0,0-69.9-16.5-94.3-22.1c-22.2-5.1-73.6-31.1-106.5-41.8c1.5,20,0.5,24.4-9.7,34.9
		c-7,7.2-17.9,12.3-53.3,0.6c-28.1-9.3-36.9-2.3-35.4,10.2c1.6,13.4,11.9,18.2,11.9,18.2s-15.5,5.7,3.6,23.5c0,0-7,13,14,25.1
		c21,12.1,18.6,14.9,113.3,26.5c94.7,11.6,169.1,42.7,168.3,39.3S2152.2,1732.7,2152.2,1732.7z"/>
	<path fill="#47D5B8" d="M2587.9,1437.9c64.4-1.1,114.7,89.8,138.7,364.3c13.1,150.7-37.5,213.1-182.7,201.1l-423.3-87.2l31.6-183.3
		l345.7,53.1C2500,1639.9,2469.4,1439.9,2587.9,1437.9z"/>
	<polygon fill="#47D5B8" points="2436.4,1409.9 2441.6,1503.9 2403.2,1516 2407.2,1420.2 	"/>
	<polygon fill="#47D5B8" points="2441.6,1503.9 2528.1,1420.6 2554.3,1430.6 2460.4,1535.6 	"/>
	<g>
		<path fill="#DD4B9B" d="M1913.4,1745.2c-0.1,0-0.3,0-0.5,0l-48.4-10.3c-1.2-0.2-1.9-1.4-1.7-2.6c0.2-1.2,1.4-1.9,2.6-1.7
			l48.4,10.3c1.2,0.2,1.9,1.4,1.7,2.6C1915.3,1744.5,1914.4,1745.2,1913.4,1745.2z"/>
	</g>
	<g>
		<path fill="#DD4B9B" d="M1917.9,1766.6c-0.1,0-0.2,0-0.4,0l-49.3-8.2c-1.2-0.2-2-1.3-1.8-2.5c0.2-1.2,1.3-2,2.5-1.8l49.3,8.2
			c1.2,0.2,2,1.3,1.8,2.5C1919.8,1765.9,1918.9,1766.6,1917.9,1766.6z"/>
	</g>
	<g>
		<path fill="#0CAF88" d="M2565.9,2006.9c-12.6,0-21.1-0.6-22.2-0.7c-0.1,0-0.3,0-0.4-0.1l-256.8-52.9c-1.6-0.3-2.7-1.9-2.3-3.6
			c0.3-1.6,1.9-2.7,3.6-2.3l256.6,52.8c4.7,0.3,95.2,5.9,139.1-25.9c1.3-1,3.2-0.7,4.2,0.7c1,1.4,0.7,3.2-0.7,4.2
			C2653.7,2003.3,2597.1,2006.9,2565.9,2006.9z"/>
	</g>
	<g>
		<path fill="#0CAF88" d="M2497.9,1788.8c-0.2,0-0.3,0-0.5,0l-345.7-53.1c-1.6-0.3-2.8-1.8-2.5-3.4c0.3-1.6,1.8-2.8,3.4-2.5
			l341.7,52.5c-2.2-15.7-9.7-74.6-10.8-137.4c-1.7-98.7,12.7-159.4,42.8-180.3c1.4-1,3.2-0.6,4.2,0.8c1,1.4,0.6,3.3-0.8,4.2
			c-68.1,47.3-29.3,313.2-28.9,315.9c0.1,0.9-0.2,1.9-0.9,2.6C2499.5,1788.5,2498.7,1788.8,2497.9,1788.8z"/>
	</g>
	<g>
		<path fill="#FFFFFF" d="M2191.1,1932.7c-0.1,0-0.2,0-0.3,0c-1.2-0.2-2-1.3-1.8-2.5l28.1-187.6c0.2-1.2,1.3-2,2.5-1.8
			c1.2,0.2,2,1.3,1.8,2.5l-28.1,187.6C2193,1932,2192.1,1932.7,2191.1,1932.7z"/>
	</g>
	<g>
		<path fill="#DD4B9B" d="M2014.5,1590.2c-0.1,0-0.1,0-0.2,0l-30-2.7c-1.2-0.1-2.1-1.2-2-2.3c0.1-1.2,1.2-2.1,2.3-2l29.4,2.7
			c3.5-1.7,5.7-4.1,6.8-7.3c2.3-6.7-0.8-14.9-2-17.5l-37.3-9.5c-1.2-0.3-1.9-1.5-1.6-2.6c0.3-1.2,1.5-1.9,2.6-1.6l38.3,9.8
			c0.6,0.2,1.1,0.6,1.4,1.1c0.2,0.5,6,12,2.6,21.7c-1.6,4.5-4.8,7.9-9.6,10.1C2015.1,1590.1,2014.8,1590.2,2014.5,1590.2z"/>
	</g>
	<g>
		<path fill="#DD4B9B" d="M2010.4,1608.1h-33c-1.2,0-2.2-1-2.2-2.2s1-2.2,2.2-2.2h32.5c2.1-1.2,3.4-2.8,4.1-4.8
			c1.4-4.6-1.4-9.9-1.4-9.9c-0.6-1-0.2-2.4,0.9-2.9c1-0.6,2.4-0.2,2.9,0.9c0.2,0.3,3.7,6.9,1.7,13.2c-1,3.3-3.2,5.8-6.7,7.6
			C2011.1,1608,2010.8,1608.1,2010.4,1608.1z"/>
	</g>
</g>
<g>
	<path fill="#080867" d="M3326.5,3458.9H709c-1.7,0-3-1.4-3-3s1.4-3,3-3h2617.5c1.7,0,3,1.4,3,3S3328.2,3458.9,3326.5,3458.9z"/>
</g>
<g>
	<polygon fill="#2C2CDB" points="1039.3,3008.2 965.1,3008.2 1002.2,2961.1 	"/>
	<rect x="988.3" y="3008.2" fill="#2C2CDB" width="27.8" height="45.4"/>
</g>
<g>
	<polygon fill="#2C2CDB" points="1171.5,2673.4 1126.2,2673.4 1148.9,2644.6 	"/>
	<rect x="1140.4" y="2673.4" fill="#2C2CDB" width="17" height="27.7"/>
</g>
<g>
	<g>
		<path fill="#FFFAF5" d="M1723.3,1455.8H943.1c-30.5,0-55.3-24.7-55.3-55.3V609.7c0-30.5,24.7-55.3,55.3-55.3h780.2
			c30.5,0,55.3,24.7,55.3,55.3v790.9C1778.5,1431.1,1753.8,1455.8,1723.3,1455.8z"/>
		<path fill="#F99900" d="M1730.8,1457.6H935.5c-27.2,0-49.4-22.2-49.4-49.4V602.1c0-27.2,22.2-49.4,49.4-49.4h795.3
			c27.2,0,49.4,22.2,49.4,49.4v806.1C1780.2,1435.4,1758.1,1457.6,1730.8,1457.6z M935.5,556.2c-25.3,0-45.9,20.6-45.9,45.9v806.1
			c0,25.3,20.6,45.9,45.9,45.9h795.3c25.3,0,45.9-20.6,45.9-45.9V602.1c0-25.3-20.6-45.9-45.9-45.9H935.5z"/>
	</g>
	<g>
		<line fill="#FFFAF5" x1="887.9" y1="642.5" x2="1778.5" y2="642.5"/>
		<rect x="887.9" y="640.8" fill="#F99900" width="890.7" height="3.5"/>
	</g>
	<circle fill="#FAAE00" cx="940.2" cy="596.8" r="22.6"/>
	<circle fill="#FAAE00" cx="1007.4" cy="596.8" r="22.6"/>
	<circle fill="#FAAE00" cx="1076.7" cy="596.8" r="22.6"/>
	<path fill="#FAAE00" d="M1594.9,783.6h-47.5c-4.2,0-7.9,2.9-8.9,7l-8.5,34.7h-390.3c-2.7,0-5.3,1.2-7.1,3.3c-1.7,2.1-2.5,4.9-2,7.5
		l14.3,76.4c0,0,0,0,0,0l17.2,91.6c0,0,0,0.1,0,0.1l13.7,72.8c0.8,4.3,4.6,7.5,9,7.5h283.9v97.8c-1.6,6.3-13,44.8-43.3,43.7h-242.5
		c-5.1,0-9.2,4.1-9.2,9.2s4.1,9.2,9.2,9.2h5c-4.5,6.7-7.2,14.7-7.2,23.4c0,23,18.7,41.7,41.7,41.7c23,0,41.7-18.7,41.7-41.7
		c0-8.6-2.7-16.7-7.2-23.4l116.7,0c-4.5,6.7-7.2,14.7-7.2,23.4c0,23,18.7,41.7,41.7,41.7c23,0,41.7-18.7,41.7-41.7
		c0-9.5-3.2-18.2-8.6-25.2c13.3-3.8,24.8-13.2,33.7-27.8c8.7-14.3,11.9-28.7,12-29.3c0.1-0.6,0.2-1.3,0.2-1.9v-107l58.9-239.7
		c0-0.1,0.1-0.2,0.1-0.3l8.5-34.6h40.3c5.1,0,9.2-4.1,9.2-9.2C1604.1,787.7,1600,783.6,1594.9,783.6z M1222.4,1291.1
		c-12.9,0-23.3-10.5-23.3-23.3s10.5-23.3,23.3-23.3c12.9,0,23.3,10.5,23.3,23.3S1235.3,1291.1,1222.4,1291.1z M1408.1,1291.1
		c-12.9,0-23.3-10.5-23.3-23.3s10.5-23.3,23.3-23.3c12.9,0,23.3,10.5,23.3,23.3S1420.9,1291.1,1408.1,1291.1z M1511.2,901.5h-98.1
		l6.6-57.9h105.8L1511.2,901.5z M1487.6,997.5l-85.3-1.1l8.7-76.5h95.7L1487.6,997.5z M1470.7,1066.2h-76.3l5.8-51.5l82.8,1.1
		L1470.7,1066.2z M1290.8,1066.2l-5.8-53l96.8,1.3l-5.9,51.7H1290.8z M1165.1,919.9h91.3l8.1,74.7l-85.7-1.1L1165.1,919.9z
		 M1274.8,919.9h117.7l-8.7,76.3l-100.9-1.3L1274.8,919.9z M1272.8,901.5l-6.3-57.9h134.7l-6.6,57.9H1272.8z M1248.1,843.6l6.3,57.9
		h-92.8l-10.9-57.9H1248.1z M1182.3,1011.8l84.2,1.1l5.8,53.3h-79.8L1182.3,1011.8z"/>
	<g>
		<rect x="1087.6" y="1307.7" fill="#F99900" width="515.9" height="3.5"/>
	</g>
</g>
<g>
	<path fill="#F99900" d="M1614.7,1728.1h-563.1c-53,0-96.1-43.1-96.1-96.1c0-53,43.1-96.1,96.1-96.1h563.1c53,0,96.1,43.1,96.1,96.1
		C1710.9,1685,1667.7,1728.1,1614.7,1728.1z M1051.6,1539.3c-51.1,0-92.7,41.6-92.7,92.7c0,51.1,41.6,92.7,92.7,92.7h563.1
		c51.1,0,92.7-41.6,92.7-92.7c0-51.1-41.6-92.7-92.7-92.7H1051.6z"/>
</g>
<g>
	<polygon fill="#F99900" points="1097.2,1585.6 1108.7,1621 1146,1621 1115.9,1643 1127.4,1678.4 1097.2,1656.5 1067.1,1678.4 
		1078.6,1643 1048.4,1621 1085.7,1621 	"/>
	<polygon fill="#F99900" points="1211.7,1585.6 1223.2,1621 1260.5,1621 1230.3,1643 1241.8,1678.4 1211.7,1656.5 1181.5,1678.4 
		1193,1643 1162.9,1621 1200.2,1621 	"/>
	<polygon fill="#F99900" points="1328.7,1585.6 1340.3,1621 1377.6,1621 1347.4,1643 1358.9,1678.4 1328.7,1656.5 1298.6,1678.4 
		1310.1,1643 1279.9,1621 1317.2,1621 	"/>
	<polygon fill="#F99900" points="1449.4,1585.6 1460.9,1621 1498.2,1621 1468,1643 1479.5,1678.4 1449.4,1656.5 1419.2,1678.4 
		1430.7,1643 1400.5,1621 1437.8,1621 	"/>
	<polygon fill="#F99900" points="1569.2,1585.6 1580.7,1621 1618,1621 1587.8,1643 1599.3,1678.4 1569.2,1656.5 1539,1678.4 
		1550.5,1643 1520.3,1621 1557.6,1621 	"/>
</g>
<g>
	<ellipse fill="#F99900" cx="2039.6" cy="1121.5" rx="64.8" ry="25.5"/>
	<rect x="1974.8" y="1111.6" fill="#F99900" width="129.6" height="9.9"/>
	<ellipse fill="#FAAE00" cx="2039.6" cy="1111.6" rx="64.8" ry="25.5"/>
	<g>
		<path fill="#FFFFFF" d="M2039.6,1132.4c-33.7,0-60.2-9.1-60.2-20.7s26.4-20.7,60.2-20.7c33.7,0,60.2,9.1,60.2,20.7
			S2073.3,1132.4,2039.6,1132.4z M2039.6,1092.6c-31.7,0-58.4,8.7-58.4,19c0,10.3,26.8,19,58.4,19s58.4-8.7,58.4-19
			C2098,1101.3,2071.3,1092.6,2039.6,1092.6z"/>
	</g>
</g>
<g>
	
		<ellipse transform="matrix(0.8419 -0.5397 0.5397 0.8419 -61.57 907.0546)" fill="#F99900" cx="1517.1" cy="558.6" rx="64.8" ry="25.5"/>
	
		<rect x="1449.6" y="549.5" transform="matrix(0.8419 -0.5397 0.5397 0.8419 -59.7459 904.9588)" fill="#F99900" width="129.6" height="9.9"/>
	
		<ellipse transform="matrix(0.8419 -0.5397 0.5397 0.8419 -57.9222 902.8618)" fill="#FAAE00" cx="1511.8" cy="550.3" rx="64.8" ry="25.5"/>
	<g>
		<path fill="#FFFFFF" d="M1472.5,587.3c-5.5,0-9.5-1.5-11.4-4.5c-6.3-9.8,11.1-31.7,39.5-49.9c13.4-8.6,27.2-14.9,38.7-17.8
			c11.8-3,20.1-2,23.1,2.8c6.3,9.8-11.1,31.7-39.5,49.9C1503.4,580.2,1484.5,587.3,1472.5,587.3z M1551,515c-3.2,0-7,0.5-11.3,1.6
			c-11.4,2.9-24.9,9.1-38.2,17.6c-26.7,17.1-44.5,38.9-38.9,47.5c5.6,8.7,32.8,1.6,59.5-15.5c26.7-17.1,44.5-38.9,38.9-47.5l0,0
			C1559.4,516.3,1555.9,515,1551,515z"/>
	</g>
</g>
<g>
	
		<ellipse transform="matrix(0.7986 -0.6019 0.6019 0.7986 -829.3504 1329.7255)" fill="#F99900" cx="1572.1" cy="1904" rx="64.8" ry="25.5"/>
	
		<rect x="1504.4" y="1895.1" transform="matrix(0.7986 -0.6019 0.6019 0.7986 -827.5776 1327.1552)" fill="#F99900" width="129.6" height="9.9"/>
	
		<ellipse transform="matrix(0.7986 -0.6019 0.6019 0.7986 -825.7972 1324.5532)" fill="#FAAE00" cx="1566.2" cy="1896.1" rx="64.8" ry="25.5"/>
	<g>
		<path fill="#FFFFFF" d="M1527.8,1936.1c-4.5,0-7.8-1.2-9.6-3.7c-3.4-4.6-1.5-12.6,5.4-22.7c6.7-9.8,17.5-20.5,30.2-30.1
			c12.7-9.6,25.9-16.9,37.2-20.7c11.6-3.9,19.9-3.5,23.3,1.1l0,0c3.4,4.6,1.5,12.6-5.4,22.7c-6.7,9.8-17.5,20.5-30.2,30.1
			c-12.7,9.6-25.9,16.9-37.2,20.7C1536.1,1935.2,1531.5,1936.1,1527.8,1936.1z M1604.6,1857.9c-3.6,0-8,0.9-13.1,2.6
			c-11.1,3.7-24.2,11-36.7,20.5c-12.6,9.5-23.2,20-29.8,29.7c-6.4,9.3-8.3,16.8-5.4,20.7c2.9,3.9,10.7,4,21.4,0.5
			c11.1-3.7,24.2-11,36.7-20.5c12.6-9.5,23.2-20,29.8-29.7c6.4-9.3,8.3-16.8,5.4-20.7c0,0,0,0,0,0
			C1611.3,1858.9,1608.5,1857.9,1604.6,1857.9z"/>
	</g>
</g>
<g>
	
		<ellipse transform="matrix(0.7986 -0.6019 0.6019 0.7986 -21.1859 1631.8362)" fill="#F99900" cx="2427.6" cy="847.6" rx="64.8" ry="25.5"/>
	
		<rect x="2359.8" y="838.7" transform="matrix(0.7986 -0.6019 0.6019 0.7986 -19.4101 1629.249)" fill="#F99900" width="129.6" height="9.9"/>
	
		<ellipse transform="matrix(0.7986 -0.6019 0.6019 0.7986 -17.6324 1626.6678)" fill="#FAAE00" cx="2421.7" cy="839.7" rx="64.8" ry="25.5"/>
	<g>
		<path fill="#FFFFFF" d="M2383.2,879.6c-4.5,0-7.8-1.2-9.6-3.7c-3.4-4.6-1.5-12.6,5.4-22.7c6.7-9.8,17.5-20.5,30.2-30.1
			c26.9-20.3,53.5-28.9,60.5-19.7l0,0c7,9.3-8.6,32.5-35.6,52.8c-12.7,9.6-25.9,16.9-37.2,20.7
			C2391.6,878.7,2387,879.6,2383.2,879.6z M2460.2,801.5c-11.3,0-31,8.7-50,23c-12.6,9.5-23.2,20-29.8,29.7
			c-6.4,9.3-8.3,16.8-5.4,20.7c2.9,3.9,10.7,4,21.4,0.5c11.1-3.7,24.2-11,36.7-20.5c25.3-19.1,41.4-42.1,35.2-50.4
			C2466.8,802.4,2464,801.5,2460.2,801.5z"/>
	</g>
</g>
<g>
	
		<ellipse transform="matrix(0.1294 -0.9916 0.9916 0.1294 -517.6492 2012.426)" fill="#F99900" cx="887.2" cy="1301" rx="25.5" ry="64.8"/>
	
		<rect x="882.9" y="1231.3" transform="matrix(0.1294 -0.9916 0.9916 0.1294 -512.2328 2008.7937)" fill="#F99900" width="9.9" height="129.6"/>
	
		<ellipse transform="matrix(0.1294 -0.9916 0.9916 0.1294 -506.8166 2005.161)" fill="#FAAE00" cx="888.5" cy="1291.2" rx="25.5" ry="64.8"/>
	<g>
		<path fill="#FFFFFF" d="M907.5,1313.2c-6.9,0-14.2-0.5-21.6-1.5c-33.5-4.4-58.5-16.8-57-28.4c0.7-5.7,7.7-10.1,19.7-12.4
			c11.7-2.3,26.8-2.4,42.6-0.4c15.8,2.1,30.4,6.1,41.1,11.3c11,5.3,16.6,11.4,15.9,17.1c-0.7,5.7-7.7,10.1-19.7,12.4
			C922.3,1312.6,915.1,1313.2,907.5,1313.2z M869.5,1270.9c-7.6,0-14.6,0.6-20.6,1.8c-11,2.2-17.7,6.2-18.4,11
			c-1.3,10.2,24.1,22.3,55.5,26.4c15.6,2,30.6,1.9,42.1-0.3c11-2.2,17.7-6.2,18.4-11l0,0c0.6-4.8-4.8-10.4-14.9-15.3
			c-10.5-5.1-24.9-9.1-40.6-11.1C883.6,1271.4,876.3,1270.9,869.5,1270.9z"/>
	</g>
</g>
<g>
	
		<ellipse transform="matrix(0.4015 -0.9159 0.9159 0.4015 302.6646 3585.2561)" fill="#F99900" cx="2894.5" cy="1561" rx="25.5" ry="64.8"/>
	
		<rect x="2891.6" y="1491.7" transform="matrix(0.4015 -0.9159 0.9159 0.4015 307.9983 3584.365)" fill="#F99900" width="9.9" height="129.6"/>
	
		<ellipse transform="matrix(0.4015 -0.9159 0.9159 0.4015 313.3311 3583.4727)" fill="#FAAE00" cx="2898.5" cy="1552" rx="25.5" ry="64.8"/>
	<g>
		<path fill="#FFFFFF" d="M2936.8,1582.8c-1.8,0-3.6-0.1-5.6-0.3c-11.9-1.1-26.4-5.2-41-11.6c-14.6-6.4-27.5-14.3-36.3-22.3
			c-9-8.2-12.8-15.6-10.5-20.8c4.7-10.7,32.5-8.4,63.4,5.2c14.6,6.4,27.5,14.3,36.3,22.3c9,8.2,12.8,15.6,10.5,20.8
			C2951.7,1580.5,2945.8,1582.8,2936.8,1582.8z M2860,1522.9c-7.9,0-13.4,1.8-15,5.6c-1.9,4.4,1.7,11.3,10.1,18.9
			c8.7,7.9,21.4,15.7,35.8,22c14.4,6.3,28.8,10.4,40.5,11.4c11.2,1,18.7-1,20.7-5.4c1.9-4.4-1.7-11.3-10.1-18.9
			c-8.7-7.9-21.4-15.7-35.8-22C2888.8,1527,2871.8,1522.9,2860,1522.9z"/>
	</g>
</g>
</svg>
